<svg width="21" height="22" viewBox="0 0 21 22" fill="none" xmlns="http://www.w3.org/2000/svg">
<path d="M16.975 6.92323L14.5775 4.52573C14.2646 4.23181 13.8546 4.06317 13.4254 4.05188C12.9963 4.04058 12.5779 4.18743 12.25 4.46448L4.37502 12.3395C4.09219 12.6247 3.91608 12.9985 3.87627 13.3982L3.50002 17.047C3.48823 17.1751 3.50486 17.3043 3.54872 17.4253C3.59258 17.5463 3.66259 17.6561 3.75377 17.747C3.83553 17.8281 3.93249 17.8922 4.0391 17.9358C4.14571 17.9793 4.25986 18.0014 4.37502 18.0007H4.45377L8.10252 17.6682C8.50221 17.6284 8.87605 17.4523 9.16127 17.1695L17.0363 9.29448C17.3419 8.97158 17.5071 8.54067 17.4956 8.0962C17.4841 7.65172 17.2969 7.22992 16.975 6.92323ZM7.94502 15.9182L5.32002 16.1632L5.55627 13.5382L10.5 8.65573L12.8625 11.0182L7.94502 15.9182ZM14 9.84573L11.655 7.50073L13.3613 5.75073L15.75 8.13948L14 9.84573Z" fill="#5B5858"/>
</svg>
