<svg width="18" height="18" viewBox="0 0 18 18" fill="none" xmlns="http://www.w3.org/2000/svg">
<path d="M15.7505 4.50006H12.0005V3.24756C11.9829 2.76742 11.7756 2.31385 11.4242 1.98628C11.0727 1.6587 10.6057 1.48385 10.1255 1.50006H7.87549C7.3953 1.48385 6.92828 1.6587 6.57681 1.98628C6.22533 2.31385 6.01808 2.76742 6.00049 3.24756V4.50006H2.25049C2.05158 4.50006 1.86081 4.57908 1.72016 4.71973C1.57951 4.86038 1.50049 5.05115 1.50049 5.25006C1.50049 5.44897 1.57951 5.63974 1.72016 5.78039C1.86081 5.92104 2.05158 6.00006 2.25049 6.00006H3.00049V14.2501C3.00049 14.8468 3.23754 15.4191 3.6595 15.841C4.08145 16.263 4.65375 16.5001 5.25049 16.5001H12.7505C13.3472 16.5001 13.9195 16.263 14.3415 15.841C14.7634 15.4191 15.0005 14.8468 15.0005 14.2501V6.00006H15.7505C15.9494 6.00006 16.1402 5.92104 16.2808 5.78039C16.4215 5.63974 16.5005 5.44897 16.5005 5.25006C16.5005 5.05115 16.4215 4.86038 16.2808 4.71973C16.1402 4.57908 15.9494 4.50006 15.7505 4.50006ZM7.50049 3.24756C7.50049 3.12756 7.65799 3.00006 7.87549 3.00006H10.1255C10.343 3.00006 10.5005 3.12756 10.5005 3.24756V4.50006H7.50049V3.24756Z" fill="#5B5858"/>
</svg>
